<svg width="413" height="36" viewBox="0 0 413 36" fill="none" xmlns="http://www.w3.org/2000/svg">
<path d="M26.8125 21.96H7.79351V17.208H32.318C31.6745 15.192 29.601 13.32 25.9545 13.32H8.15101C4.07551 13.32 1.71601 14.832 1.71601 18.144V21.672C1.71601 24.552 4.14701 26.208 7.72201 26.208H26.9555V31.248H1.07251C1.71601 33.984 3.78951 35.424 7.50751 35.424H26.884C30.9595 35.424 32.9615 33.84 32.9615 30.456V26.928C32.9615 23.832 30.602 22.176 26.8125 21.96Z" fill="white"/>
<path d="M65.6371 13.392H42.1851V35.496H48.8346V27H66.1376C70.9281 27 73.5736 25.344 73.5736 21.456V19.008C73.5021 15.408 70.4991 13.392 65.6371 13.392ZM67.7821 20.448C67.7821 22.032 67.4961 22.896 64.9221 22.896H48.8346L48.9061 17.136H64.6361C67.4961 17.136 67.8536 18 67.8536 19.512V20.448H67.7821Z" fill="white"/>
<path d="M92.8786 12.456L88.8746 17.424L95.6671 26.856H81.5101L78.0066 30.6H98.4556L101.959 35.496H109.824L92.8786 12.456Z" fill="white"/>
<path d="M122.551 17.208H147.433C146.79 14.616 144.287 13.32 140.712 13.32H122.122C118.905 13.32 115.83 14.616 115.83 18.144V30.528C115.83 34.056 118.905 35.352 122.122 35.352H140.927C145.217 35.352 146.718 34.128 147.433 31.176H122.551V17.208Z" fill="white"/>
<path d="M163.234 31.32V24.552H176.605V20.808H156.513V35.496H186.186V31.32H163.234Z" fill="white"/>
<path d="M187.187 13.392H157.229V17.28H187.187V13.392Z" fill="white"/>
<path d="M205.634 13.392H195.195L207.493 22.464C209.281 21.24 211.354 19.944 213.213 18.864L205.634 13.392Z" fill="white"/>
<path d="M220.792 24.696C219.004 25.92 217.217 27.288 215.501 28.584L224.796 35.424H235.306L220.792 24.696Z" fill="white"/>
<path d="M285.285 0.503998C228.085 3.816 201.63 28.44 195.695 34.272L194.48 35.424H205.062C233.662 6.552 274.774 1.44 285.285 0.503998Z" fill="white"/>
</svg>
